# xmcd CD database file
#
# Track frame offsets:
#	182
#	14195
#	30622
#	43857
#	56807
#	70012
#	85707
#	100490
#	113472
#	129030
#	145555
#	160137
#	175407
#	187340
#	201665
#	215017
#
# Disc length: 3049 seconds
#
# Revision: 0
# Processed by: cddbd v1.5.2PL0 Copyright (c) Steve Scherf et al.
# Submitted via: CDex 1.70beta2
#
DISCID=eb0be710
DTITLE=Jelly Roll Morton - Jazz Tribune (1929-1930)
DYEAR=1995
DGENRE=Jazz
TTITLE0=Each Day
TTITLE1=If Someone Would Only Love Me
TTITLE2=That'll Never Do
TTITLE3=I'm Looking For A Little Bluebird
TTITLE4=Little Lawrence
TTITLE5=Harmony Blues
TTITLE6=Fussy Mabel
TTITLE7=Ponchatrain
TTITLE8=When They Get Lovin' They's Gone
TTITLE9=When They Get Lovin' They's Gone
TTITLE10=You Done Played Out Blues
TTITLE11=You Done Played Out Blues
TTITLE12=Oil Well
TTITLE13=Oil Well
TTITLE14=Load Of Coal
TTITLE15=Load Of Coal
EXTD=YEAR: 1995
EXTT0=
EXTT1=
EXTT2=
EXTT3=
EXTT4=
EXTT5=
EXTT6=
EXTT7=
EXTT8=
EXTT9=
EXTT10=
EXTT11=
EXTT12=
EXTT13=
EXTT14=
EXTT15=
PLAYORDER=
